<?xml version="1.0" encoding="utf-8"?>
<!-- Generator: Adobe Illustrator 27.4.1, SVG Export Plug-In . SVG Version: 6.00 Build 0)  -->
<svg version="1.1" id="Layer_1" xmlns="http://www.w3.org/2000/svg" xmlns:xlink="http://www.w3.org/1999/xlink" x="0px" y="0px"
	 viewBox="0 0 800 170.6" style="enable-background:new 0 0 800 170.6;" xml:space="preserve">
<style type="text/css">
	.st0{fill:url(#SVGID_1_);}
</style>
<path d="M200.97,10.13c0.65,1.81,1.01,4.24,1.07,7.28c0.06,3.04-0.36,6.21-1.27,9.49c-1.77,6.41-4.39,10.98-7.85,13.69
	s-7.5,4.07-12.1,4.07h-51.79l-7.7,27.87h54.01c0.81,1.81,1.27,4.19,1.35,7.15c0.09,2.96-0.32,6.08-1.23,9.37
	c-1.73,6.25-4.32,10.73-7.78,13.44c-3.46,2.71-7.5,4.07-12.1,4.07h-43.16L98.07,158.6c-1.95,0.49-4.92,0.99-8.92,1.48
	c-4,0.49-7.89,0.74-11.67,0.74c-3.78,0-7.03-0.29-9.75-0.86c-2.72-0.57-4.86-1.6-6.42-3.08c-1.56-1.48-2.48-3.54-2.74-6.17
	c-0.26-2.63,0.2-6.08,1.38-10.36L89.58,33.06c1.95-7.07,5.55-12.66,10.8-16.77c5.24-4.11,11.4-6.17,18.47-6.17H200.97z"/>
<path d="M226.32,14.57c3.25-1.64,7.91-3.21,14-4.69c6.08-1.48,12-2.22,17.75-2.22c8.22,0,15.17,1.2,20.84,3.58
	c5.67,2.39,8.71,6.13,9.11,11.22c0.6,8.55,2.32,122.91,2.29,131.95c-2.61,2.31-6.08,4.15-10.41,5.55c-4.33,1.4-9.21,2.1-14.64,2.1
	c-3.95,0-7.18-0.33-9.72-0.99c-2.53-0.66-4.48-1.64-5.84-2.96c-1.36-1.31-2.29-3.04-2.76-5.18c-0.48-2.14-0.74-4.6-0.79-7.4
	l0.26-17.02h-44.64c-2.68,4.93-13.66,25.65-16.34,30.58c-2.53,0.82-5.15,1.52-7.86,2.1c-2.71,0.57-5.87,0.86-9.49,0.86
	c-8.39,0-14.2-1.44-17.43-4.32c-3.24-2.87-4.15-6.86-2.74-11.96c0.64-2.3,1.6-4.6,2.89-6.9c1.29-2.3,2.78-5.01,4.47-8.14
	C157.65,126.29,224.35,17.53,226.32,14.57z M247.13,46.38c-4.21,6.91-24.32,40.12-29.02,48.83h30.58
	c0.15-8.88,0.03-42.09-0.08-48.83H247.13z"/>
<path d="M345.29,100.15c-6.92-2.47-13.17-4.97-18.76-7.52c-5.59-2.55-10.29-5.63-14.1-9.25c-3.81-3.61-6.58-7.93-8.32-12.95
	c-1.74-5.01-2.14-11.14-1.2-18.37c1.8-13.97,8.63-25.16,20.49-33.54c11.85-8.39,27.48-12.58,46.88-12.58
	c7.07,0,13.58,0.49,19.54,1.48c5.95,0.99,10.98,2.51,15.07,4.56c4.09,2.06,7.16,4.69,9.22,7.89c2.05,3.21,2.8,6.95,2.25,11.22
	c-0.55,4.28-2.01,7.94-4.38,10.98c-2.37,3.04-5.09,5.63-8.16,7.77c-3.32-2.3-7.91-4.32-13.77-6.04c-5.86-1.73-12.41-2.59-19.64-2.59
	c-7.4,0-12.96,1.03-16.68,3.08c-3.72,2.06-5.78,4.65-6.18,7.77c-0.32,2.47,0.49,4.48,2.43,6.04c1.93,1.56,4.95,3,9.06,4.32
	l12.53,4.19c14.82,4.93,25.88,11.22,33.2,18.87c7.31,7.65,10.12,18.05,8.42,31.2c-1.81,13.98-8.78,25.28-20.9,33.91
	c-12.13,8.63-28.89,12.95-50.26,12.95c-7.56,0-14.51-0.62-20.85-1.85c-6.34-1.23-11.78-3.04-16.32-5.43
	c-4.54-2.38-7.94-5.34-10.2-8.88c-2.26-3.53-3.09-7.6-2.49-12.21c0.62-4.77,2.54-8.84,5.77-12.21c3.23-3.37,6.6-5.96,10.13-7.77
	c4.13,3.62,9.36,6.74,15.68,9.37c6.32,2.63,13.43,3.95,21.32,3.95c8.05,0,13.89-1.23,17.49-3.7c3.61-2.47,5.62-5.34,6.05-8.63
	c0.42-3.29-0.57-5.8-2.97-7.52c-2.41-1.73-5.89-3.41-10.44-5.06L345.29,100.15z"/>
<path d="M419.23,44.65c-0.65-1.81-1.04-4.27-1.16-7.4c-0.12-3.12,0.29-6.41,1.24-9.87c1.77-6.41,4.48-11.01,8.13-13.81
	c3.65-2.79,7.77-4.19,12.38-4.19h107.53c0.65,1.81,1.04,4.28,1.16,7.4c0.12,3.13-0.29,6.41-1.24,9.86
	c-1.77,6.41-4.48,11.02-8.13,13.81c-3.65,2.8-7.78,4.19-12.38,4.19h-27.38L467.93,158.6c-1.95,0.49-4.92,0.99-8.92,1.48
	c-4,0.49-7.89,0.74-11.67,0.74c-3.78,0-7.04-0.29-9.75-0.86c-2.72-0.57-4.86-1.6-6.42-3.08c-1.57-1.48-2.48-3.54-2.74-6.17
	c-0.26-2.63,0.2-6.08,1.38-10.36l26.42-95.69H419.23z"/>
<g>
	<linearGradient id="SVGID_1_" gradientUnits="userSpaceOnUse" x1="552.6044" y1="21.8188" x2="693.691" y2="103.2752">
		<stop  offset="0" style="stop-color:#F65135"/>
		<stop  offset="1" style="stop-color:#F4B537"/>
	</linearGradient>
	<path class="st0" d="M690.28,55.9c0.89,0.05,1.79,0.08,2.69,0.08c0.9,0,1.8-0.02,2.69-0.08h0.02
		c25.48-1.39,45.72-22.44,45.82-48.24H605.83c-43.09,0-78.01,34.93-78.01,78.01s34.93,78.01,78.01,78.01
		c43.09,0,78.01-34.93,78.01-78.01h-48.24c0,16.45-13.33,29.78-29.78,29.78c-16.44,0-29.78-13.33-29.78-29.78
		c0-16.44,13.33-29.78,29.78-29.78h-2.1h2.1H690.28h5.37h0.02"/>
</g>
</svg>
